<svg width="57" height="68" viewBox="0 0 57 68" fill="none" xmlns="http://www.w3.org/2000/svg">
<path d="M25.9203 11.3176V5.91757C25.9203 5.35507 26.3703 4.88257 26.9553 4.88257C27.5178 4.88257 27.9903 5.33257 27.9903 5.91757V11.3176H25.9203ZM21.1278 11.3176H19.0803L17.2803 6.18757C17.0553 5.55757 17.5278 4.90507 18.2028 4.90507C18.6078 4.90507 18.9903 5.17507 19.1253 5.55757L21.1278 11.3176ZM32.7603 11.3176H34.8078L36.6078 6.18757C36.8328 5.55757 36.3603 4.90507 35.6853 4.90507C35.2803 4.90507 34.8978 5.17507 34.7628 5.55757L32.7603 11.3176ZM19.1118 17.4781C18.9834 17.4783 18.8581 17.4383 18.7534 17.3638C18.6488 17.2893 18.57 17.184 18.5281 17.0626C18.4862 16.9411 18.4833 16.8096 18.5198 16.6865C18.5563 16.5633 18.6303 16.4546 18.7316 16.3756C19.9757 15.5047 21.5009 15.1315 23.0066 15.3293C23.1064 15.3413 23.2017 15.3775 23.2843 15.4346C23.367 15.4917 23.4345 15.5681 23.481 15.6571C23.5276 15.7462 23.5517 15.8452 23.5514 15.9457C23.551 16.0462 23.5262 16.1451 23.4791 16.2338C23.4206 16.3404 23.3314 16.427 23.223 16.4824C23.1147 16.5378 22.9923 16.5593 22.8716 16.5443C21.6874 16.4009 20.4909 16.6841 19.4966 17.3431C19.3875 17.429 19.2507 17.4765 19.1118 17.4781ZM34.8303 17.4781C34.6945 17.4793 34.5622 17.4349 34.4546 17.3521C33.4587 16.6967 32.2635 16.4139 31.0796 16.5533C30.998 16.5654 30.9147 16.561 30.8348 16.5404C30.7549 16.5197 30.68 16.4832 30.6145 16.4331C30.549 16.3829 30.4942 16.3201 30.4533 16.2484C30.4125 16.1767 30.3865 16.0975 30.3769 16.0155C30.3672 15.9336 30.3742 15.8505 30.3972 15.7713C30.4203 15.692 30.459 15.6182 30.5111 15.5542C30.5632 15.4902 30.6276 15.4374 30.7005 15.3987C30.7735 15.3601 30.8534 15.3365 30.9356 15.3293C32.4408 15.1402 33.9629 15.5127 35.2106 16.3756C35.312 16.4547 35.3861 16.5636 35.4226 16.687C35.459 16.8104 35.4559 16.9421 35.4137 17.0636C35.3716 17.1852 35.2924 17.2905 35.1874 17.3648C35.0824 17.4391 34.959 17.4787 34.8303 17.4781ZM21.4878 18.4276C19.9803 18.4276 18.7203 19.4626 18.3828 20.8576C18.2703 21.2401 18.5853 21.6226 18.9903 21.6226H19.9803C19.8986 21.3185 19.8879 20.9996 19.949 20.6907C20.0101 20.3818 20.1414 20.091 20.3328 19.8409C20.5241 19.5908 20.7705 19.3881 21.0527 19.2484C21.3349 19.1086 21.6454 19.0357 21.9603 19.0351C22.2753 19.0357 22.5858 19.1086 22.868 19.2484C23.1502 19.3881 23.3965 19.5908 23.5879 19.8409C23.7793 20.091 23.9106 20.3818 23.9717 20.6907C24.0328 20.9996 24.0221 21.3185 23.9403 21.6226H24.0978C24.4353 21.6226 24.6828 21.3301 24.6153 20.9926C24.3453 19.5301 23.0403 18.4276 21.4878 18.4276ZM32.4453 18.4276C33.9528 18.4276 35.2128 19.4626 35.5503 20.8576C35.6403 21.2626 35.3478 21.6451 34.9428 21.6451H33.9528C33.9978 21.4651 34.0203 21.2851 34.0203 21.1051C34.0203 19.9801 33.0978 19.0576 31.9728 19.0576C31.6579 19.0582 31.3474 19.1311 31.0652 19.2709C30.783 19.4106 30.5366 19.6133 30.3453 19.8634C30.1539 20.1135 30.0226 20.4043 29.9615 20.7132C29.9004 21.0221 29.9111 21.341 29.9928 21.6451H29.8353C29.7568 21.647 29.6788 21.6309 29.6074 21.5982C29.536 21.5655 29.4729 21.5169 29.423 21.4562C29.3732 21.3955 29.3378 21.3242 29.3196 21.2478C29.3013 21.1713 29.3007 21.0918 29.3178 21.0151C29.6103 19.5301 30.8928 18.4276 32.4453 18.4276Z" fill="white"/>
<path d="M21.9599 19.9127C22.1617 19.9106 22.3605 19.9612 22.5368 20.0593C22.7131 20.1575 22.8607 20.2999 22.9652 20.4725C23.0697 20.6451 23.1274 20.842 23.1326 21.0437C23.1378 21.2454 23.0904 21.445 22.9949 21.6227H20.9249C20.8306 21.4437 20.7843 21.2432 20.7906 21.0409C20.7969 20.8385 20.8556 20.6413 20.9609 20.4685C20.9889 20.5117 21.0257 20.5485 21.069 20.5763C21.1124 20.6041 21.1612 20.6222 21.2121 20.6296C21.2631 20.6369 21.315 20.6332 21.3644 20.6188C21.4138 20.6043 21.4595 20.5795 21.4985 20.5459C21.5375 20.5122 21.5688 20.4706 21.5904 20.4239C21.6119 20.3771 21.6232 20.3263 21.6234 20.2748C21.6236 20.2234 21.6128 20.1724 21.5917 20.1255C21.5706 20.0786 21.5396 20.0367 21.5009 20.0027C21.6459 19.9409 21.8023 19.9102 21.9599 19.9127ZM31.9724 19.9127C31.8319 19.9108 31.6922 19.9352 31.5607 19.9847C31.604 20.0184 31.639 20.0616 31.6631 20.1109C31.6872 20.1601 31.6997 20.2143 31.6997 20.2692C31.6996 20.324 31.6871 20.3782 31.6629 20.4274C31.6387 20.4767 31.6036 20.5198 31.5603 20.5534C31.5169 20.587 31.4665 20.6103 31.4127 20.6214C31.359 20.6326 31.3035 20.6313 31.2503 20.6176C31.1972 20.604 31.1478 20.5784 31.1061 20.5428C31.0643 20.5072 31.0313 20.4626 31.0094 20.4122C30.8735 20.6093 30.8012 20.8433 30.8024 21.0827C30.8024 21.2852 30.8699 21.4652 30.9374 21.6227H33.0074C33.0974 21.4652 33.1424 21.2852 33.1424 21.0827C33.1424 20.4302 32.6249 19.9127 31.9724 19.9127ZM26.9774 28.4852C25.7624 28.4852 24.6149 28.1927 23.6474 27.6977C23.3099 27.5177 22.9724 27.9002 23.1749 28.2152C23.9849 29.4527 25.3799 30.2852 26.9774 30.2852C28.5749 30.2852 29.9699 29.4527 30.7799 28.2152C30.9824 27.9002 30.6224 27.5402 30.3074 27.6977C29.3174 28.1927 28.1924 28.4852 26.9774 28.4852ZM25.0649 24.7502L26.2574 20.9027C26.5274 20.0702 27.7199 20.0702 27.9674 20.9027L29.1599 24.7502C29.4074 25.5377 28.8224 26.3252 27.9899 26.3252H26.2349C25.4024 26.3252 24.8174 25.5377 25.0649 24.7502Z" fill="white"/>
<path fill-rule="evenodd" clip-rule="evenodd" d="M14.7825 0C8.97076 0 6.08401 7.0155 10.1768 11.1082L11.2275 12.159V13.545C11.2275 14.2695 11.4795 14.9378 11.9025 15.462C11.91 15.5955 11.9198 15.726 11.9318 15.8535L12.015 17.1225C11.4059 17.6841 10.92 18.366 10.588 19.1251C10.2561 19.8842 10.0854 20.704 10.0868 21.5325C10.0868 23.0175 10.6268 24.381 11.52 25.4272V26.685C11.52 28.6065 12.2873 30.3862 13.5675 31.6868C13.758 32.2118 13.9845 32.7158 14.247 33.1987L12.2108 34.6928C11.3805 35.235 10.5593 35.8447 9.80101 36.4702H9.79876C6.73144 38.9974 4.26195 42.1725 2.56772 45.7675C0.873489 49.3626 -0.00341588 53.2882 9.99955e-06 57.2625V65.25C9.99955e-06 65.8467 0.237063 66.419 0.65902 66.841C1.08098 67.2629 1.65327 67.5 2.25001 67.5H51.75C52.9155 67.5 53.9775 67.014 54.7425 66.3142C55.512 65.61 56.1375 64.5368 56.1375 63.2475V52.02C56.1375 49.7295 54.4163 47.835 52.2 47.556V45.009L52.2023 45.0045L52.2045 45C52.2195 44.972 52.2402 44.9474 52.2653 44.928C53.2485 44.2373 54.009 43.2923 54.5018 42.1852C55.1394 40.7734 55.4711 39.2425 55.475 37.6933C55.4789 36.1441 55.1549 34.6116 54.5243 33.1965C53.9912 32.006 53.1246 30.9954 52.0293 30.2871C50.934 29.5787 49.6569 29.2028 48.3525 29.205C47.0495 29.2025 45.7736 29.5772 44.6788 30.2839C43.5841 30.9906 42.7172 31.999 42.183 33.1875C41.9673 33.6662 41.7853 34.1594 41.6385 34.6635L41.3775 34.4947L39.8993 33.4237C40.3403 32.6587 40.686 31.842 40.9365 30.9735C41.8645 29.7362 42.3665 28.2316 42.3675 26.685V25.587C43.3824 24.4809 43.9446 23.0337 43.9425 21.5325C43.9425 19.872 43.2675 18.3713 42.183 17.2845L42.2685 15.8805C42.3045 15.561 42.3308 15.2393 42.3473 14.9153C42.5543 14.499 42.6735 14.022 42.66 13.5067V12.1815L43.7333 11.1082C47.826 7.0155 44.937 0 39.1275 0H14.7825ZM40.5518 7.92675L39.0218 9.45675C38.7533 9.66726 38.5362 9.93606 38.3869 10.2428C38.2376 10.5496 38.16 10.8863 38.16 11.2275V12.375H15.7275V11.2275C15.7274 10.6308 15.4902 10.0586 15.0683 9.63675L13.3583 7.92675C12.096 6.6645 12.9893 4.5 14.7825 4.5H39.1275C40.9208 4.5 41.814 6.6645 40.5518 7.92675ZM24.9525 34.8075C23.418 34.8089 21.9171 34.358 20.6374 33.5112C19.3576 32.6645 18.3558 31.4594 17.757 30.0465L17.6738 29.7878C17.6341 29.6542 17.5821 29.5247 17.5185 29.4008C17.3835 28.9773 17.2856 28.5429 17.226 28.1025L16.5825 18.3713C16.5897 18.2679 16.5897 18.1641 16.5825 18.0608L16.4183 15.5363L16.4138 15.4845C16.3881 15.1986 16.3716 14.912 16.3643 14.625H37.8315C37.8195 14.7705 37.8045 14.916 37.7865 15.0615L37.7798 15.0997L36.9675 28.1047C36.7039 29.9657 35.7769 31.6687 34.3571 32.9004C32.9374 34.132 31.1205 34.8093 29.241 34.8075H24.9525ZM13.9005 38.988C13.4715 39.2955 13.0583 39.6127 12.6608 39.9398C10.1053 42.045 8.04806 44.6904 6.63701 47.6856C5.22595 50.6808 4.49613 53.9515 4.50001 57.2625V63H41.6655C41.7121 62.5934 41.8374 62.1999 42.0345 61.8413C41.7666 61.3752 41.6252 60.8472 41.6245 60.3096C41.6237 59.772 41.7635 59.2436 42.03 58.7767C41.7615 58.307 41.6214 57.7748 41.6238 57.2337C41.6261 56.6926 41.7709 56.1617 42.0435 55.6943C41.766 55.2022 41.629 54.6434 41.6475 54.0788C41.6835 52.6275 42.7748 51.3832 44.2035 51.228C44.3017 51.2009 44.4031 51.1873 44.505 51.1875H45.6075V44.8493C45.6057 44.6632 45.5587 44.4804 45.4705 44.3165C45.3823 44.1527 45.2556 44.0127 45.1013 43.9087L45.0878 43.8975L45.072 43.8885C44.2715 43.3057 43.632 42.5292 43.2135 41.6318C43.1424 41.4784 43.0756 41.3231 43.0133 41.166C42.651 41.0754 42.3169 40.896 42.0413 40.644C41.3917 40.0525 40.708 39.4995 39.9938 38.988H30.3143C31.0899 39.5289 31.7234 40.2492 32.161 41.0875C32.5986 41.9258 32.8272 42.8574 32.8275 43.803V47.5605C31.2724 47.5605 29.7807 46.9436 28.6798 45.8453C27.5789 44.7469 26.9586 43.2566 26.955 41.7015C26.9514 43.2566 26.3312 44.7469 25.2302 45.8453C24.1293 46.9436 22.6377 47.5605 21.0825 47.5605V43.803C21.0825 41.8118 22.077 40.05 23.5958 38.988H13.9005ZM51.6375 55.3275V53.4375H44.7413C44.6636 53.4541 44.5844 53.4624 44.505 53.4622C44.235 53.4622 43.9065 53.721 43.8975 54.1373V54.1485C43.8927 54.2763 43.9174 54.4034 43.9697 54.5201C44.022 54.6367 44.1005 54.7398 44.199 54.8213C44.3387 54.9283 44.4513 55.0666 44.5277 55.2251C44.6042 55.3836 44.6425 55.5578 44.6394 55.7337C44.6364 55.9096 44.5921 56.0824 44.5101 56.2381C44.4281 56.3938 44.3108 56.5281 44.1675 56.6303C44.0753 56.7027 44.0009 56.7953 43.9502 56.901C43.8995 57.0068 43.8738 57.1227 43.875 57.24C43.875 57.5438 44.01 57.7463 44.145 57.8385C44.2948 57.9404 44.4178 58.0769 44.5036 58.2365C44.5893 58.3961 44.6352 58.574 44.6374 58.7551C44.6396 58.9363 44.5981 59.1153 44.5162 59.2769C44.4344 59.4385 44.3148 59.578 44.1675 59.6835C44.0747 59.7564 44 59.8498 43.9492 59.9563C43.8985 60.0629 43.8731 60.1797 43.875 60.2977C43.875 60.5993 44.01 60.8017 44.145 60.894C44.2941 60.9951 44.4168 61.1306 44.5026 61.2891C44.5885 61.4475 44.635 61.6242 44.6383 61.8044C44.6416 61.9845 44.6016 62.1629 44.5216 62.3243C44.4417 62.4858 44.3241 62.6257 44.1788 62.7323C44.0873 62.8022 44.0153 62.8944 43.9695 63H51.6375V55.3275ZM48.3525 34.0875C47.4413 34.0875 46.6335 34.6185 46.2758 35.4217C45.9619 36.1272 45.7997 36.8929 45.7997 37.665C45.7997 38.4371 45.9619 39.2006 46.2758 39.906C46.6335 40.7115 47.4413 41.2425 48.3525 41.2425C49.2638 41.2425 50.0715 40.7115 50.4293 39.9082C51.0638 38.4907 51.0638 36.846 50.4338 35.4307C50.2495 35.0329 49.9561 34.6955 49.5877 34.4577C49.2193 34.22 48.791 34.0916 48.3525 34.0875Z" fill="white"/>
</svg>
